<!--?xml version="1.0" standalone="no"?-->              <svg id="sw-js-blob-svg" viewBox="0 0 100 100" xmlns="http://www.w3.org/2000/svg" version="1.1">                    <defs>                         <linearGradient id="sw-gradient" x1="0" x2="1" y1="1" y2="0">                            <stop id="stop1" stop-color="rgba(242, 255, 251, 1)" offset="0%"></stop>                            <stop id="stop2" stop-color="rgba(242, 255, 251, 1)" offset="100%"></stop>                        </linearGradient>                    </defs>                <path fill="url(#sw-gradient)" d="M23.6,-31.4C30.5,-27.4,36,-20.5,36.9,-13.1C37.7,-5.8,33.8,2,29.8,8.3C25.8,14.5,21.7,19.4,16.7,24.5C11.7,29.7,5.9,35.2,0,35.2C-5.8,35.2,-11.7,29.6,-18.7,25.1C-25.7,20.6,-34,17.2,-38.7,10.7C-43.5,4.2,-44.7,-5.4,-41.1,-12.3C-37.4,-19.3,-28.9,-23.7,-21.3,-27.5C-13.6,-31.3,-6.8,-34.6,0.8,-35.6C8.3,-36.6,16.6,-35.5,23.6,-31.4Z" width="100%" height="100%" transform="translate(50 50)" stroke-width="0" style="transition: 0.3s;" stroke="url(#sw-gradient)"></path>              </svg>